# xmcd
#
# Track frame offsets:
#	150
#	19642
#	36822
#	63282
#	85032
#	101185
#	115450
#	139050
#	150977
#	181705
#	197187
#	223550
#	233550
#	260242
#
# Disc length: 3620
#
# Revision: 1
# Processed by: cddbd v1.5.1PL0 Copyright (c) Steve Scherf et al.
# Submitted via: CDex 1.51
# Normalized: r0:TDELIM( - )
#
DISCID=b90e220e
DTITLE=Various Artist - Masters Of Jazz
DYEAR=1993
DGENRE=Jazz
TTITLE0=Helen Merrill - You'd Be So Nice To Come Home To
TTITLE1=Ella Fitzgerald - Too Darn Hot
TTITLE2=Sarah Vaughan - Jim
TTITLE3=Oscar Peterson - Night Train
TTITLE4=Shirley Horn - Love Is Here To Stay
TTITLE5=Billie Holliday - Willow Weep For Me
TTITLE6=Sonny Stitt - Down Home Blues
TTITLE7=Billie Holliday - My Man
TTITLE8=Dizzy Gillispie - Constantinople
TTITLE9=Anita O'Day - Crazy, He Called Me
TTITLE10=Stan Getz - Desafinado
TTITLE11=Blosssom Derie - 'Deed I Do
TTITLE12=Louis Armstrong and Ella Fitsgerald - Cheek To Cheek
TTITLE13=Dianh Washington - What A Diff'rence a Day Makes
EXTD=YEAR: 1993
EXTT0=
EXTT1=
EXTT2=
EXTT3=
EXTT4=
EXTT5=
EXTT6=
EXTT7=
EXTT8=
EXTT9=
EXTT10=
EXTT11=
EXTT12=
EXTT13=
PLAYORDER=
